<?xml version="1.0" ?>
<!-- Uploaded to: SVG Repo, www.svgrepo.com, Generator: SVG Repo Mixer Tools -->
<svg width="800px" height="800px" viewBox="0 -8.25 512 512" xmlns="http://www.w3.org/2000/svg">
<defs>
<style>.cls-1{fill:none;stroke:#000000;stroke-linecap:round;stroke-linejoin:round;stroke-width:20px;}</style>
</defs>
<g data-name="Layer 2" id="Layer_2">
<g data-name="E440, Archive, cabinet, drawer" id="E440_Archive_cabinet_drawer">
<path class="cls-1" d="M371.47,304.77l-20.08,40.16H160.61l-20.08-40.16H40.12A30.12,30.12,0,0,0,10,334.89V455.38A30.12,30.12,0,0,0,40.12,485.5H471.88A30.12,30.12,0,0,0,502,455.38V334.89a30.12,30.12,0,0,0-30.12-30.12Z"/>
<rect class="cls-1" height="40.16" rx="20.08" width="251.02" x="130.49" y="395.14"/>
<path class="cls-1" d="M502,324.85,456.49,88.22a30.13,30.13,0,0,0-29.58-24.43H254.05"/>
<path class="cls-1" d="M10,324.85,55.5,88.22a30.13,30.13,0,0,1,25-24.08"/>
<path class="cls-1" d="M80.29,304.77v-99a21.51,21.51,0,0,1,21.51-21.52H215.71A21.5,21.5,0,0,1,236,198.6l17.84,39.47H410.2a21.51,21.51,0,0,1,21.51,21.51v45.19"/>
<path class="cls-1" d="M80.29,304.77v-180a21.5,21.5,0,0,1,21.51-21.51H215.71A21.51,21.51,0,0,1,236,117.55L253.82,157H410.2a21.51,21.51,0,0,1,21.51,21.52V304.77"/>
<path class="cls-1" d="M431.71,253.45a21,21,0,0,0,.25-3.19V85.31a21.52,21.52,0,0,0-21.52-21.52H254.05L236.22,24.32A21.5,21.5,0,0,0,216,10H102A21.51,21.51,0,0,0,80.53,31.52v90"/>
</g>
</g>
</svg>