<?xml version="1.0" encoding="UTF-8" standalone="no"?>
<!-- Uploaded to: SVG Repo, www.svgrepo.com, Generator: SVG Repo Mixer Tools -->

<svg
   fill="#000000"
   width="1105.6421"
   height="1090.0664"
   viewBox="0 0 707.61094 697.6425"
   version="1.1"
   id="svg4"
   sodipodi:docname="ColorPicker.svg"
   inkscape:version="1.1.1 (3bf5ae0d25, 2021-09-20)"
   xmlns:inkscape="http://www.inkscape.org/namespaces/inkscape"
   xmlns:sodipodi="http://sodipodi.sourceforge.net/DTD/sodipodi-0.dtd"
   xmlns="http://www.w3.org/2000/svg"
   xmlns:svg="http://www.w3.org/2000/svg">
  <defs
     id="defs8" />
  <sodipodi:namedview
     id="namedview6"
     pagecolor="#ffffff"
     bordercolor="#666666"
     borderopacity="1.0"
     inkscape:pageshadow="2"
     inkscape:pageopacity="0.0"
     inkscape:pagecheckerboard="0"
     showgrid="false"
     inkscape:snap-bbox="true"
     inkscape:bbox-paths="true"
     inkscape:bbox-nodes="true"
     inkscape:snap-bbox-edge-midpoints="true"
     inkscape:snap-bbox-midpoints="true"
     inkscape:object-paths="true"
     inkscape:snap-intersection-paths="true"
     inkscape:snap-smooth-nodes="true"
     inkscape:snap-midpoints="true"
     inkscape:snap-object-midpoints="true"
     inkscape:snap-center="true"
     inkscape:snap-page="true"
     fit-margin-top="0"
     fit-margin-left="0"
     fit-margin-right="0"
     fit-margin-bottom="0"
     inkscape:zoom="1"
     inkscape:cx="443.5"
     inkscape:cy="511.5"
     inkscape:window-width="2560"
     inkscape:window-height="1351"
     inkscape:window-x="-9"
     inkscape:window-y="898"
     inkscape:window-maximized="1"
     inkscape:current-layer="svg4" />
  <path
     id="path1896"
     d="m 679.4872,28.125 c -37.47,-37.5 -98.28,-37.5 -135.75,0 l -77.09,77.09 -13.1,-13.1 c -9.44,-9.44 -24.65,-9.31 -33.94,0 l -40.97,40.97 c -9.37,9.37 -9.37,24.57 0,33.94 l 161.94,161.94 c 9.44,9.44 24.65,9.31 33.94,0 l 40.97,-40.96 c 9.37,-9.37 9.37,-24.57 0,-33.94 l -13.1,-13.1 77.09,-77.09 c 37.51,-37.48 37.51,-98.26 0.01,-135.75 z"
     sodipodi:nodetypes="cccscsssccsccc"
     inkscape:label="Bulb"
     style="fill:#0f8ddb;fill-opacity:1" />
  <g
     id="layer1"
     inkscape:label="Pipette"
     transform="translate(6.6275002,179.015)"
     style="fill:#f0f0f0;fill-opacity:1">
    <path
       id="path1904"
       style="fill:#f0f0f0;fill-opacity:1;stroke-width:1"
       inkscape:label="path1904"
       d="M 600,279.71094 79.296875,800.41406 C 60.546875,819.16406 50,844.60156 50,871.13281 v 71.07813 L 0,1029.7109 a 35.355339,35.355339 0 0 0 -10.355469,25 A 35.355339,35.355339 0 0 0 25,1090.0664 35.355339,35.355339 0 0 0 50,1079.7109 l 87.5,-50 h 71.07812 c 26.51563,0 51.95313,-10.5312 70.70313,-29.2812 L 800,479.71094 Z"
       transform="matrix(0.64,0,0,0.64,0,-179.015)" />
  </g>
</svg>
